<?xml version="1.0" encoding="utf-8"?>
<!DOCTYPE svg PUBLIC "-//W3C//DTD SVG 1.1//EN" "http://www.w3.org/Graphics/SVG/1.1/DTD/svg11.dtd">
<svg version="1.1" id="Layer_1" xmlns="http://www.w3.org/2000/svg" xmlns:xlink="http://www.w3.org/1999/xlink" x="0px" y="0px"
	 viewBox="0 0 1641.147 1600" enable-background="new 0 0 1641.147 1600" xml:space="preserve">
<path fill="none" d="M660.6334,1596.189c-0.04,0.12-0.0701,0.24-0.1001,0.36c0.03-0.12,0.0601-0.23,0.0901-0.3501
	C660.6234,1596.1989,660.6234,1596.189,660.6334,1596.189z"/>
<path fill="none" d="M700.0833,1500.799l-39.1001,94.4099c-0.0499,0.1301-0.1099,0.27-0.1599,0.4001
	c0.04-0.1301,0.0901-0.27,0.15-0.4001L700.0833,1500.799z"/>
<polygon fill="#002C7C" points="759.1534,1006.1689 724.8033,1040.5389 750.9233,986.309 "/>
<path fill="#007EA1" d="M700.0833,1500.799l-39.11,94.4099c-0.0599,0.1301-0.11,0.27-0.15,0.4001
	c-0.03,0.0898-0.0601,0.1799-0.0901,0.2699c-0.0299,0.0699-0.0499,0.15-0.0698,0.2201c-0.01,0.0299-0.02,0.0599-0.03,0.09
	c-0.01,0-0.01,0.0099-0.01,0.0099c-0.03,0.1201-0.0601,0.2301-0.0901,0.3501c-0.05,0.1899-0.09,0.38-0.1299,0.5601
	c-0.04,0.1899-0.0701,0.3799-0.1001,0.5699c-0.04,0.1901-0.0601,0.38-0.08,0.5699c-0.03,0.1801-0.05,0.3701-0.0699,0.5601H463.4233
	l91.57-37.92c4.67-1.9301,7.74-6.51,7.74-11.58v-41.4301l29.31,29.3101c2.38,2.41,5.5901,3.6801,8.8501,3.6801
	c1.6199,0,3.25-0.3301,4.8099-0.9701L700.0833,1500.799z"/>
<polygon points="537.6633,1429.1489 537.6633,1447.359 531.7433,1441.439 "/>
<path fill="#FFFFFF" d="M660.6234,1596.1989c-0.03,0.1201-0.0601,0.2301-0.0901,0.3501c0.03-0.12,0.0601-0.24,0.1001-0.36
	C660.6234,1596.189,660.6234,1596.1989,660.6234,1596.1989z"/>
<polygon fill="#BF5700" points="370.5533,1312.7789 312.1433,1418.4789 228.6233,1313.7389 145.0933,1209.0089 261.1433,1175.589 
	344.2733,1221.5189 "/>
<path fill="#007EA1" d="M490.6733,1190.5289l-41.15-4.65c-5.04-0.5699-9.93,1.9501-12.36,6.4l-49.47,89.45l-22.21-77.1299
	l-70.2599-38.8201l98.22-28.3201c4.88-1.3799,8.42-5.5898,8.99-10.6299l4.62-41.15l25.82,32.38c1.99,2.5,4.81,4.08,7.84,4.5601
	c1.79,0.2799,3.64,0.1799,5.44-0.3401l35.31-10.1699l-17.77,32.1599c-0.91,1.64-1.42,3.4299-1.54,5.23
	c-0.21,3.0601,0.7,6.16,2.7,8.66L490.6733,1190.5289z"/>
<polygon fill="#002C7C" points="750.9233,986.309 724.8033,1040.5389 730.2632,992.2589 "/>
<path fill="#007EA1" d="M423.8533,1497.7389l27.45,95.24l-122.66-153.8099c0.86-0.85,1.69-1.78,2.3-2.9l49.43-89.4299l28.28,98.1699
	c0.47,1.6101,1.22,3.0901,2.24,4.3601c2.03,2.5499,5.02,4.2599,8.39,4.6199l41.19,4.65l-32.39,25.83
	C424.1133,1487.6289,422.4533,1492.8789,423.8533,1497.7389z"/>
<polygon points="537.6633,1429.1489 531.7433,1441.439 523.4233,1440.5089 "/>
<polygon fill="none" points="1176.2933,1158.1589 1150.4833,1190.5289 1150.4734,1190.5289 "/>
<polygon fill="#002C7C" points="916.3433,1040.5389 890.2233,986.309 910.8934,992.2589 "/>
<polygon fill="#002C7C" points="1243.6334,1315.799 1210.7234,1430.0289 1161.2134,1435.609 1152.9534,1436.5389 
	1078.4135,1377.089 1078.4135,1472.429 1072.5433,1478.309 1037.3134,1513.5389 927.4832,1468.049 881.9932,1358.1989 
	923.0733,1317.119 1049.5333,1317.119 1128.3834,1218.2489 1186.1134,1211.7389 "/>
<path fill="#007EA1" d="M1217.2933,1497.7389c1.4-4.86-0.26-10.11-4.23-13.27l-32.39-25.83l41.1901-4.65
	c3.3699-0.36,6.36-2.0699,8.3899-4.6199c1.02-1.27,1.77-2.75,2.24-4.3601l28.28-98.1699l49.4301,89.4299
	c0.61,1.12,1.4401,2.05,2.2999,2.9l-122.6599,153.8099L1217.2933,1497.7389z"/>
<polygon points="1117.7234,1440.5089 1109.4034,1441.439 1103.4833,1429.1489 "/>
<polygon fill="#BF5700" points="954.5333,1598.809 686.6133,1598.809 732.8333,1487.2389 820.5733,1450.8889 908.3133,1487.2389 "/>
<path fill="#007EA1" d="M894.7233,1454.4889l-74.15-30.73l-74.15,30.73l39.1-94.45c1.9501-4.6699,0.8701-10.0701-2.72-13.66
	l-29.29-29.2599h41.42c3.1901,0,6.1901-1.2201,8.4501-3.3c1.33-1.21,2.4099-2.73,3.1299-4.46l14.0601-33.9401l14.0601,33.9401
	c0.72,1.73,1.7999,3.25,3.1299,4.46c2.26,2.08,5.26,3.3,8.4501,3.3h41.42l-29.29,29.2599c-3.5901,3.59-4.67,8.9901-2.72,13.66
	L894.7233,1454.4889z"/>
<polygon fill="#002C7C" points="916.3433,1040.5389 881.9932,1006.1689 890.2233,986.309 "/>
<path fill="#007EA1" d="M1177.7234,1598.809H980.9932c-0.1199-1.2-0.3298-2.42-0.8199-3.6001l-39.11-94.4099l94.3801,39.1
	c1.5599,0.64,3.1901,0.9701,4.8099,0.9701c3.26,0,6.4701-1.27,8.8501-3.6801l29.3101-29.3101v41.4301
	c0,5.0699,3.0698,9.6499,7.74,11.58L1177.7234,1598.809z"/>
<polygon points="1109.4034,1441.439 1103.4833,1447.359 1103.4833,1429.1489 "/>
<path fill="none" d="M1299.0133,801.2589l-9.22-40.38c-0.36-1.56-1-3-1.86-4.2599c0.87,1.2599,1.51,2.7,1.87,4.2599
	L1299.0133,801.2589z"/>
<polygon fill="#002C7C" points="1035.7633,890.7889 977.0733,877.3989 994.6133,864.9489 "/>
<polygon fill="#002C7C" points="1523.8234,903.4789 1497.3134,945.6689 1492.8934,952.6989 1399.9434,973.9089 1474.4833,1033.359 
	1475.4135,1041.609 1480.9933,1091.119 1376.9434,1148.6289 1262.7034,1115.6989 1256.1934,1057.9689 1335.0433,959.0989 
	1306.9034,835.809 1337.8134,786.619 1455.0333,806.5289 "/>
<path fill="#007EA1" d="M1638.2032,1021.3889l-57.3499-80.84c-2.92-4.12-8.0701-6.09-13.01-4.96l-40.4,9.22l22.0599-35.1
	c1.8101-2.86,2.3401-6.27,1.6201-9.44c-0.3601-1.59-1.05-3.1-2.01-4.48l-59.1301-83.31l100.74,17.11c1.26,0.23,2.5,0.16,3.7002,0.01
	L1638.2032,1021.3889z"/>
<polygon fill="#002C7C" points="1607.3734,1021.2589 1554.1934,1050.6589 1543.6733,1056.4689 1498.2234,1020.2289 
	1495.4634,995.7189 1508.5834,974.8289 1565.2633,961.8889 1572.2134,971.6989 "/>
<polygon points="1474.0333,982.7189 1469.5734,989.809 1456.2633,986.7689 "/>
<polygon fill="#BF5700" points="1496.0533,1209.0089 1412.5233,1313.7389 1329.0033,1418.4789 1270.5934,1312.7789 
	1296.8734,1221.5189 1380.0033,1175.589 "/>
<path fill="#002C7C" d="M1345.9233,1165.7789l-70.2599,38.8201l-22.2101,77.1299l-49.4701-89.45
	c-2.4299-4.45-7.3198-6.97-12.3599-6.4l-41.1401,4.65l25.8101-32.37c2-2.5,2.91-5.6,2.7-8.66c-0.1199-1.8-0.6299-3.59-1.5399-5.23
	l-17.77-32.1599l35.3099,10.1699c1.8,0.52,3.6602,0.62,5.4401,0.3401c3.03-0.4801,5.85-2.0601,7.84-4.5601l25.8201-32.38l4.62,41.15
	c0.5699,5.04,4.11,9.25,8.99,10.6299L1345.9233,1165.7789z"/>
<polygon fill="#002C7C" points="1035.7633,890.7889 987.4733,896.2189 977.0733,877.3989 "/>
<path fill="#007EA1" d="M1635.2032,1034.5089l-122.6499,153.8101h-0.01c-1.01-0.65-2.1-1.25-3.33-1.6001l-98.1901-28.2899
	l89.42-49.41c1.4701-0.8201,2.74-1.89,3.75-3.1599c2.03-2.54,3.0399-5.8401,2.64-9.2101l-4.64-41.1901l32.39,25.8301
	c3.97,3.1599,9.46,3.62,13.88,1.1699L1635.2032,1034.5089z"/>
<polygon points="1470.5133,998.1289 1456.2633,986.7689 1469.5734,989.809 "/>
<polygon fill="#002C7C" points="993.1434,704.059 946.0733,741.5889 947.2833,720.119 "/>
<polygon fill="#002C7C" points="1427.3634,480.869 1407.4534,598.0689 1310.4734,666.8589 1261.2833,635.9489 1233.1434,512.6589 
	1119.2134,457.7889 1100.0233,402.9589 1188.6733,323.7189 1307.3534,330.3889 1323.8134,377.4189 1326.5533,385.2589 
	1285.1934,471.1589 1378.1434,449.939 1385.1733,454.3589 "/>
<path fill="#007EA1" d="M1470.8634,314.4789l-98.96-5.56c-5.04-0.29-9.79,2.5-11.99,7.07l-17.9801,37.33l-13.6901-39.1299
	c-1.0999-3.2-3.4399-5.7401-6.3699-7.15c-1.47-0.7-3.0801-1.11-4.76-1.21l-101.99-5.73l76.1799-68.08
	c0.96-0.85,1.6899-1.86,2.3101-2.9L1470.8634,314.4789z"/>
<polygon fill="#002C7C" points="1451.5433,338.499 1441.3634,398.4089 1439.3534,410.2589 1382.6833,423.189 1361.7933,410.0689 
	1353.6434,386.7889 1378.8634,334.4089 1390.8734,335.0889 "/>
<polygon points="1341.0333,426.6289 1330.3634,435.1389 1338.2633,418.7189 "/>
<polygon fill="#BF5700" points="1588.5333,803.799 1469.4734,783.559 1414.5133,706.1089 1430.4333,612.489 1528.9233,542.5989 
	1558.7234,673.1989 "/>
<path fill="#002C7C" d="M1434.5233,777.6089l-100.79-17.1c-4.98-0.87-10.0099,1.39-12.7,5.6801l-22.02,35.0699l-9.21-40.38
	c-0.36-1.56-1-3-1.87-4.2599c-0.87-1.28-1.96-2.38-3.23-3.25c-1.48-1.02-3.1901-1.7401-5.0499-2.05l-36.2201-6.16l29.9601-21.26
	c1.5399-1.09,2.77-2.48,3.6599-4.04c1.52-2.67,2.04-5.86,1.3301-8.98l-9.2101-40.37l35.05,22.04c4.2899,2.7,9.7999,2.55,13.91-0.39
	l83.3799-59.14l-13.45,79.13L1434.5233,777.6089z"/>
<polygon fill="#002C7C" points="993.1434,704.059 967.2833,745.189 946.0733,741.5889 "/>
<path fill="#007EA1" d="M1523.0333,516.799c-1.1499,0.38-2.3,0.86-3.34,1.61l-83.33,59.12l17.1199-100.71
	c0.1201-0.72,0.1802-1.44,0.1802-2.15c0-0.93-0.1101-1.85-0.3101-2.75c-0.72-3.18-2.6801-6.02-5.55-7.81l-35.11-22.05l40.4-9.22
	c4.9399-1.13,8.72-5.14,9.5701-10.12l16.5898-97.72L1523.0333,516.799z"/>
<polygon points="1348.1234,431.0789 1330.3634,435.1389 1341.0333,426.6289 "/>
<path fill="none" d="M636.3433,402.7589c-0.67,0.41-1.3,0.88-1.87,1.39C635.0433,403.6289,635.6733,403.1589,636.3433,402.7589z"/>
<path fill="none" d="M674.7033,384.2289l-37.3099,17.97c-0.3601,0.17-0.7101,0.36-1.05,0.56c0.34-0.21,0.6899-0.4,1.05-0.5699
	L674.7033,384.2289z"/>
<polygon fill="#002C7C" points="820.5733,620.9489 820.5733,681.1489 804.5333,666.8189 "/>
<path fill="#007EA1" d="M745.8533,92.239l17.97,37.34l-39.13-13.7c-3.1901-1.1299-6.63-0.8799-9.5599,0.53
	c-1.47,0.7-2.79,1.71-3.91,2.96l-68.0699,76.17l-5.7301-102.02c-0.0699-1.27-0.41-2.47-0.83-3.6l177.25-85.36l-66.05,73.9
	C744.4233,82.2189,743.6534,87.679,745.8533,92.239z"/>
<polygon points="820.5733,175.989 820.5733,189.6389 812.6733,173.2189 "/>
<path fill="none" d="M1004.8033,402.7589c-0.34-0.2-0.6899-0.39-1.05-0.56l-37.3099-17.97l37.3099,17.96
	C1004.1133,402.3589,1004.4633,402.549,1004.8033,402.7589z"/>
<path fill="none" d="M1006.6733,404.1489c-0.5699-0.51-1.2-0.98-1.87-1.39
	C1005.4733,403.1589,1006.1033,403.6289,1006.6733,404.1489z"/>
<polygon fill="#BF5700" points="1269.7733,217.6389 1179.7234,298.1089 1084.9034,292.7889 1021.6234,221.9689 1028.3934,101.3989 
	"/>
<path fill="#007EA1" d="M1073.5834,403.3389l13.6899,39.08l-37.3099-17.97c-2.88-1.39-6.11-1.59-9.0499-0.7
	c-1.7201,0.52-3.3501,1.41-4.75,2.66l-27.4002,24.48l2.0601-36.68c0.11-1.88-0.21-3.71-0.88-5.38c-0.11-0.27-0.22-0.53-0.36-0.79
	c-0.0701-0.16-0.15-0.32-0.24-0.48c-0.0801-0.16-0.17-0.32-0.26-0.47c-0.11-0.18-0.22-0.36-0.3401-0.54
	c-0.1099-0.18-0.24-0.36-0.3699-0.53c-0.1201-0.17-0.26-0.34-0.4-0.51c-0.0599-0.09-0.14-0.17-0.2101-0.25
	c-0.0699-0.08-0.1399-0.16-0.21-0.24c-0.1499-0.16-0.3-0.32-0.45-0.47c-0.14-0.14-0.28-0.27-0.4301-0.4
	c-0.5699-0.52-1.2-0.99-1.87-1.39c-0.34-0.21-0.6899-0.4-1.05-0.5699l-37.3099-17.96l39.09-13.66
	c4.78-1.68,8.1001-6.0699,8.3701-11.1299l5.75-102.0601l53.48,59.86l80.1399,4.49l-76.21,68.13
	C1073.2733,393.2189,1071.9034,398.549,1073.5834,403.3389z"/>
<path fill="#002C7C" d="M1280.1534,831.2689l-12.9301-56.65l-87.61-14.89l72.47-51.43l-12.9299-56.65l-100.8401-63.36
	l-39.3301-112.41l-52.3499-25.21l-66.2701,59.2l4.97-88.72l-52.3501-25.21l-112.4099,39.33l-112.4099-39.33l-52.3501,25.21
	l4.97,88.72l-66.27-59.2l-52.3499,25.21l-39.33,112.41l-100.84,63.36l-12.93,56.65l72.47,51.43l-87.61,14.89l-12.93,56.65
	l63.36,100.84l-13.33,118.3399l36.23,45.4301l85.39-24.59l-42.97,77.78l36.23,45.4299l118.3399,13.3401l84.2101,84.21h58.1
	l34.02-82.1001l34.02,82.1001h58.1l84.2101-84.21l118.3499-13.3401l36.23-45.4299l-42.98-77.78l85.3901,24.59l36.23-45.4301
	l-13.3301-118.3399L1280.1534,831.2689z M1065.9933,880.179l43.76,27.5l-51.3599,5.79l-36.2501,45.45l42.97,77.77l-85.3802-24.58
	l-36.25,45.45l5.79,51.36l-36.5499-36.5499h-58.13l-34.02,82.0798l-34.02-82.0798h-58.13l-36.5499,36.5499l5.79-51.36l-36.25-45.45
	l-85.3801,24.58l42.97-77.77l-36.25-45.45l-51.3599-5.79l43.7601-27.5l12.9399-56.67l-72.45-51.43l87.5899-14.9l12.9302-56.67
	l-27.5-43.77l48.7899,17.07l52.38-25.22l-4.97-88.71l66.26,59.19l52.3799-25.22l17.0701-48.79l17.0701,48.79l52.3799,25.22
	l66.26-59.19l-4.97,88.71l52.38,25.22l48.79-17.07l-27.5,43.77l12.9302,56.67l87.5898,14.9l-72.45,51.43L1065.9933,880.179z"/>
<path fill="#FFFFFF" d="M1109.7533,907.679l-43.76-27.5l-12.9399-56.67l72.45-51.43l-87.5898-14.9l-12.9302-56.67l27.5-43.77
	l-48.79,17.07l-52.38-25.22l4.97-88.71l-66.26,59.19l-52.3799-25.22l-17.0701-48.79l-17.0701,48.79l-52.3799,25.22l-66.26-59.19
	l4.97,88.71l-52.38,25.22l-48.7899-17.07l27.5,43.77l-12.9302,56.67l-87.5899,14.9l72.45,51.43l-12.9399,56.67l-43.7601,27.5
	l51.3599,5.79l36.25,45.45l-42.97,77.77l85.3801-24.58l36.25,45.45l-5.79,51.36l36.5499-36.5499h58.13l34.02,82.0798l34.02-82.0798
	h58.13l36.5499,36.5499l-5.79-51.36l36.25-45.45l85.3802,24.58l-42.97-77.77l36.2501-45.45L1109.7533,907.679z M820.5733,620.9489
	l16.04,45.87l-16.04,14.33l-16.04-14.33L820.5733,620.9489z M724.8033,1040.5389l5.46-48.28l20.66-5.95l8.2301,19.86
	L724.8033,1040.5389z M881.9932,1006.1689l8.2301-19.86l20.67,5.95l5.45,48.28L881.9932,1006.1689z M1000.8734,839.2589
	c-1.6101-1.0099-3.3901-1.62-5.21-1.84c-0.1401-0.01-0.29-0.02-0.4302-0.03c-0.1599-0.01-0.3198-0.03-0.48-0.04
	c-2.73-0.12-5.48,0.65-7.7999,2.31l-42.66,30.26l25.3101,45.77c1.36,2.5,3.51,4.39,6.03,5.46c0.1399,0.06,0.2899,0.11,0.4399,0.17
	c0.14,0.05,0.27,0.11,0.4099,0.16c1.7201,0.59,3.5901,0.81,5.4801,0.6l41.2001-4.64l-25.8401,32.39
	c-3.1599,3.97-3.63,9.44-1.1699,13.88l17.7699,32.16l-35.3099-10.17c-4.8701-1.41-10.1001,0.27-13.26,4.23l-25.8401,32.4
	l-4.6399-41.2c-0.21-1.89-0.8401-3.66-1.8101-5.21c-0.0701-0.13-0.1599-0.24-0.24-0.36c-0.0901-0.13-0.1699-0.27-0.27-0.4
	c-1.6-2.21-3.9199-3.89-6.6599-4.66l-50.26-14.4901l-20.01,48.32c-1.1001,2.63-1.24,5.49-0.51,8.12c0.04,0.16,0.1,0.31,0.1499,0.46
	c0.04,0.14,0.0801,0.28,0.1301,0.41c0.6099,1.73,1.5999,3.32,2.95,4.67l29.3101,29.31h-41.4401c-5.0699,0-9.64,3.05-11.58,7.74
	l-14.0601,33.9399l-14.0601-33.9399c-1.9399-4.6899-6.51-7.74-11.58-7.74h-41.4401l29.3201-29.31
	c1.3401-1.35,2.3301-2.94,2.9399-4.67c0.05-0.1299,0.0901-0.27,0.1401-0.41c0.0399-0.15,0.0999-0.3,0.1399-0.46
	c0.73-2.63,0.5901-5.49-0.51-8.12l-20.01-48.32l-50.26,14.4901c-2.74,0.77-5.0599,2.45-6.6599,4.66
	c-0.1001,0.13-0.1799,0.27-0.27,0.4c-0.0801,0.12-0.1699,0.23-0.24,0.36c-0.97,1.55-1.6001,3.32-1.8101,5.21l-4.6399,41.2
	l-25.8401-32.4c-3.1599-3.96-8.3899-5.64-13.26-4.23l-35.3099,10.17l17.7699-32.16c2.4601-4.44,1.99-9.91-1.1699-13.88
	l-25.8401-32.39l41.2001,4.64c1.89,0.21,3.76-0.01,5.4801-0.6c0.1399-0.05,0.2699-0.11,0.4099-0.16c0.15-0.06,0.3-0.11,0.4399-0.17
	c2.52-1.07,4.67-2.96,6.03-5.46l25.3101-45.77l-42.66-30.26c-2.3099-1.66-5.0699-2.43-7.7999-2.31
	c-0.1602,0.01-0.3201,0.03-0.48,0.04c-0.1401,0.01-0.29,0.02-0.4302,0.03c-1.8099,0.22-3.5999,0.83-5.2,1.84l-35.11,22.06
	l9.2201-40.4c1.1299-4.94-0.8201-10.08-4.9601-13.01l-29.96-21.26l36.22-6.16c5-0.84,8.99-4.63,10.12-9.57l9.22-40.4l22.05,35.11
	c1.01,1.61,2.35,2.9301,3.89,3.91c0.13,0.08,0.25,0.15,0.38,0.22c0.1399,0.08,0.27,0.16,0.4099,0.2401c2.41,1.3,5.23,1.8,8.03,1.31
	l51.5601-8.76l-2.9399-52.21c-0.1401-2.85-1.26-5.48-3.0601-7.54c-0.1001-0.12-0.22-0.23-0.3301-0.35
	c-0.09-0.11-0.1899-0.21-0.29-0.32c-1.2999-1.28-2.8899-2.29-4.6799-2.92l-39.13-13.69l37.33-17.98
	c4.5701-2.2,7.3701-6.92,7.0701-11.99l-2.05-36.68l27.4,24.47c3.78,3.39,9.2201,4.15,13.79,1.95l37.33-17.98l-13.6899,39.13
	c-0.63,1.79-0.8301,3.67-0.64,5.48c0.0199,0.15,0.0399,0.29,0.0599,0.43c0.03,0.16,0.04,0.32,0.0701,0.47
	c0.49,2.7,1.86,5.21,3.99,7.1l38.99,34.85l38.99-34.85c2.13-1.89,3.5-4.4,3.99-7.1c0.03-0.15,0.04-0.31,0.0701-0.47
	c0.02-0.14,0.04-0.28,0.0599-0.43c0.1901-1.81-0.01-3.69-0.64-5.48l-13.6899-39.13l37.33,17.98c4.5699,2.2,10.01,1.44,13.79-1.95
	l27.4-24.47l-2.05,36.68c-0.3,5.07,2.5,9.79,7.0701,11.99l37.33,17.98l-39.13,13.69c-1.79,0.63-3.38,1.64-4.6799,2.92
	c-0.1001,0.11-0.1901,0.21-0.29,0.32c-0.1101,0.12-0.23,0.23-0.3301,0.35c-1.8,2.06-2.9199,4.69-3.0601,7.54l-2.9399,52.21
	l51.5601,8.76c2.8101,0.49,5.62-0.01,8.03-1.31c0.1399-0.08,0.28-0.16,0.4099-0.2401c0.13-0.0699,0.25-0.14,0.38-0.22
	c1.54-0.98,2.88-2.3,3.89-3.91l22.05-35.11l9.22,40.4c1.13,4.94,5.12,8.73,10.1201,9.57l36.22,6.16l-29.96,21.26
	c-4.14,2.93-6.09,8.07-4.9601,13.01l9.2201,40.4L1000.8734,839.2589z M1035.7633,890.7889l-48.29,5.43l-10.4-18.82l17.54-12.45
	L1035.7633,890.7889z M605.3834,890.7889l41.1499-25.84l17.54,12.45l-10.4,18.82L605.3834,890.7889z M648.0032,704.059
	l45.8601,16.06l1.21,21.47l-21.21,3.6L648.0032,704.059z M993.1434,704.059l-25.8601,41.13l-21.21-3.6l1.21-21.47L993.1434,704.059z
	"/>
<path fill="#007EA1" d="M994.7532,837.3489c0.1602,0.01,0.3201,0.03,0.48,0.04c0.1401,0.01,0.29,0.02,0.4302,0.03
	c1.8198,0.22,3.5999,0.83,5.21,1.84l35.1,22.06l-9.2201-40.4c-1.1299-4.94,0.8201-10.08,4.9601-13.01l29.96-21.26l-36.22-6.16
	c-5.0001-0.84-8.9901-4.63-10.1201-9.57l-9.22-40.4l-22.05,35.11c-1.01,1.61-2.35,2.9301-3.89,3.91c-0.13,0.08-0.25,0.15-0.38,0.22
	c-0.1299,0.08-0.27,0.16-0.4099,0.2401c-2.41,1.3-5.22,1.8-8.03,1.31l-51.5601-8.76l2.9399-52.21c0.1401-2.85,1.26-5.48,3.0601-7.54
	c0.1001-0.12,0.22-0.23,0.3301-0.35c0.1-0.11,0.1899-0.21,0.29-0.32c1.2999-1.28,2.8899-2.29,4.6799-2.92l39.13-13.69l-37.33-17.98
	c-4.5701-2.2-7.3701-6.92-7.0701-11.99l2.05-36.68l-27.4,24.47c-3.78,3.39-9.2201,4.15-13.79,1.95l-37.33-17.98l13.6899,39.13
	c0.63,1.79,0.8301,3.67,0.64,5.48c-0.0199,0.15-0.0399,0.29-0.0599,0.43c-0.03,0.16-0.04,0.32-0.0701,0.47
	c-0.49,2.7-1.86,5.21-3.99,7.1l-38.99,34.85l-38.99-34.85c-2.13-1.89-3.5-4.4-3.99-7.1c-0.03-0.15-0.04-0.31-0.0701-0.47
	c-0.02-0.14-0.04-0.28-0.0599-0.43c-0.1901-1.81,0.01-3.69,0.64-5.48l13.6899-39.13l-37.33,17.98c-4.5699,2.2-10.01,1.44-13.79-1.95
	l-27.4-24.47l2.05,36.68c0.3,5.07-2.5,9.79-7.0701,11.99l-37.33,17.98l39.13,13.69c1.79,0.63,3.38,1.64,4.6799,2.92
	c0.1001,0.11,0.2001,0.21,0.29,0.32c0.1101,0.12,0.23,0.23,0.3301,0.35c1.8,2.06,2.9199,4.69,3.0601,7.54l2.9399,52.21
	l-51.5601,8.76c-2.8,0.49-5.62-0.01-8.03-1.31c-0.1399-0.08-0.27-0.16-0.4099-0.2401c-0.13-0.0699-0.25-0.14-0.38-0.22
	c-1.54-0.98-2.88-2.3-3.89-3.91l-22.05-35.11l-9.22,40.4c-1.13,4.94-5.12,8.73-10.12,9.57l-36.22,6.16l29.96,21.26
	c4.14,2.93,6.09,8.07,4.9601,13.01l-9.2201,40.4l35.11-22.06c1.6001-1.0099,3.39-1.62,5.2-1.84c0.1401-0.01,0.29-0.02,0.4302-0.03
	c0.1599-0.01,0.3198-0.03,0.48-0.04c2.73-0.12,5.49,0.65,7.7999,2.31l42.66,30.26l-25.3101,45.77c-1.36,2.5-3.51,4.39-6.03,5.46
	c-0.1399,0.06-0.2899,0.11-0.4399,0.17c-0.14,0.05-0.27,0.11-0.4099,0.16c-1.7201,0.59-3.5901,0.81-5.4801,0.6l-41.2001-4.64
	l25.8401,32.39c3.1599,3.97,3.63,9.44,1.1699,13.88l-17.7699,32.16l35.3099-10.17c4.8701-1.41,10.1001,0.27,13.26,4.23l25.8401,32.4
	l4.6399-41.2c0.21-1.89,0.8401-3.66,1.8101-5.21c0.0701-0.13,0.1599-0.24,0.24-0.36c0.0901-0.13,0.1699-0.27,0.27-0.4
	c1.6-2.21,3.9199-3.89,6.6599-4.66l50.26-14.4901l20.01,48.32c1.1001,2.63,1.24,5.49,0.51,8.12c-0.04,0.16-0.1,0.31-0.1399,0.46
	c-0.05,0.14-0.0901,0.28-0.1401,0.41c-0.6099,1.73-1.5999,3.32-2.9399,4.67l-29.3201,29.31h41.4401c5.0699,0,9.64,3.05,11.58,7.74
	l14.0601,33.9399l14.0601-33.9399c1.9399-4.6899,6.51-7.74,11.58-7.74h41.4401l-29.3101-29.31c-1.3501-1.35-2.3401-2.94-2.95-4.67
	c-0.05-0.1299-0.0901-0.27-0.1301-0.41c-0.0499-0.15-0.1099-0.3-0.1499-0.46c-0.73-2.63-0.5901-5.49,0.51-8.12l20.01-48.32
	l50.26,14.4901c2.74,0.77,5.0599,2.45,6.6599,4.66c0.1001,0.13,0.1799,0.27,0.27,0.4c0.0801,0.12,0.1699,0.23,0.24,0.36
	c0.97,1.55,1.6001,3.32,1.8101,5.21l4.6399,41.2l25.8401-32.4c3.1599-3.96,8.3899-5.64,13.26-4.23l35.3099,10.17l-17.7699-32.16
	c-2.4601-4.44-1.99-9.91,1.1699-13.88l25.8401-32.39l-41.2001,4.64c-1.89,0.21-3.76-0.01-5.4801-0.6
	c-0.1399-0.05-0.2699-0.11-0.4099-0.16c-0.15-0.06-0.3-0.11-0.4399-0.17c-2.52-1.07-4.67-2.96-6.03-5.46l-25.3101-45.77l42.66-30.26
	C989.2733,837.999,992.0233,837.2289,994.7532,837.3489z M909.8433,862.049l-11.9,41.32v0.0099l-37.64,20.79l-39.73,16.46
	l-39.73-16.46l-37.64-20.79v-0.0099l-11.9-41.32l-7.2-42.39l24.8799-35.07l28.6501-32.07l42.9399-2.41l42.9399,2.41l28.6501,32.07
	l24.8899,35.07L909.8433,862.049z"/>
<polygon fill="#002C7C" points="836.6133,666.8189 820.5733,681.1489 820.5733,620.9489 "/>
<path fill="#007EA1" d="M1004.5533,89.9189c-0.4199,1.13-0.76,2.33-0.83,3.6l-5.7301,102.02l-68.0599-76.17
	c-1.13-1.25-2.4501-2.26-3.92-2.96c-2.9299-1.41-6.3699-1.66-9.5599-0.53l-39.13,13.7l17.97-37.34
	c2.2-4.56,1.4301-10.02-1.9399-13.78l-66.05-73.9L1004.5533,89.9189z"/>
<polygon points="828.4733,173.2189 820.5733,189.6389 820.5733,175.989 "/>
<polygon fill="#002C7C" points="695.0733,741.5889 673.8633,745.189 648.0032,704.059 "/>
<path fill="#007EA1" d="M187.6633,476.8189l17.12,100.71l-83.33-59.12c-1.04-0.75-2.19-1.23-3.34-1.61l43.78-191.8l16.59,97.72
	c0.85,4.98,4.63,8.99,9.57,10.12l40.4,9.22l-35.1,22.05c-2.88,1.79-4.84,4.63-5.5601,7.81c-0.2,0.9-0.31,1.82-0.31,2.75
	C187.4833,475.3789,187.5433,476.0989,187.6633,476.8189z"/>
<polygon points="310.7833,435.1389 293.0233,431.0789 300.1133,426.6289 "/>
<polygon fill="#BF5700" points="619.5233,221.9689 556.2433,292.7889 461.4233,298.1089 371.3733,217.6389 612.7532,101.3989 "/>
<path fill="#007EA1" d="M674.7033,384.2289l-37.3099,17.96c-0.3601,0.17-0.7101,0.36-1.05,0.5699c-0.67,0.4-1.3,0.87-1.87,1.39
	c-0.15,0.13-0.3,0.27-0.4301,0.4c-0.1499,0.15-0.3,0.31-0.45,0.47c-0.0701,0.08-0.14,0.16-0.21,0.24
	c-0.0701,0.08-0.1501,0.16-0.2101,0.25c-0.14,0.17-0.2799,0.34-0.4,0.51c-0.1299,0.17-0.26,0.35-0.3699,0.53
	c-0.1201,0.18-0.2301,0.36-0.3401,0.54c-0.09,0.15-0.1799,0.31-0.26,0.47c-0.09,0.16-0.1699,0.3199-0.24,0.48
	c-0.14,0.26-0.25,0.52-0.36,0.79c-0.67,1.67-0.99,3.5-0.88,5.38l2.0601,36.68l-27.4001-24.48c-1.3999-1.25-3.0299-2.14-4.75-2.66
	c-2.9399-0.89-6.1699-0.69-9.0499,0.7l-37.31,17.97l13.69-39.08c1.6799-4.79,0.3101-10.12-3.48-13.48l-76.21-68.13l80.14-4.49
	l53.48-59.86l5.75,102.0601c0.27,5.06,3.5901,9.45,8.3701,11.1299L674.7033,384.2289z"/>
<polygon fill="#002C7C" points="695.0733,741.5889 648.0032,704.059 693.8633,720.119 "/>
<path fill="#007EA1" d="M426.0233,300.0989l-101.99,5.73c-1.68,0.1-3.29,0.51-4.76,1.21c-2.93,1.41-5.27,3.95-6.37,7.15
	l-13.69,39.1299l-17.98-37.33c-2.2-4.57-6.95-7.36-11.99-7.07l-98.96,5.56l177.25-85.36c0.62,1.04,1.35,2.05,2.31,2.9
	L426.0233,300.0989z"/>
<polygon points="310.7833,435.1389 300.1133,426.6289 302.8833,418.7189 "/>
<path fill="#FFFFFF" d="M892.1634,784.5889l-28.6501-32.07l-42.9399-2.41l-42.9399,2.41l-28.6501,32.07l-24.8799,35.07l7.2,42.39
	l11.9,41.32l37.64,20.8l39.73,16.46l39.73-16.46l37.64-20.8l11.9-41.32l7.2-42.39L892.1634,784.5889z M885.3734,856.4689
	l-8.6401,29.99l-27.3198,15.1l-28.8401,11.95l-28.8401-11.95l-27.3198-15.1l-8.6401-29.99l-5.23-30.78l18.0601-25.45l20.8-23.28
	l31.1699-1.75l31.1699,1.75l20.8,23.28l18.0601,25.45L885.3734,856.4689z"/>
<polygon fill="#002C7C" points="664.0733,877.3989 653.6733,896.2189 605.3834,890.7889 "/>
<path fill="#007EA1" d="M230.1233,1158.429l-98.19,28.2899c-1.23,0.3501-2.32,0.9501-3.33,1.6001l-122.66-153.8101l86.74,47.95
	c4.42,2.4501,9.91,1.99,13.88-1.1699l32.39-25.8301l-4.64,41.1901c-0.4,3.37,0.61,6.67,2.64,9.2101
	c1.01,1.2699,2.28,2.3398,3.75,3.1599L230.1233,1158.429z"/>
<polygon points="184.8833,986.7689 170.6333,998.1289 171.5733,989.809 "/>
<polygon fill="#BF5700" points="226.6333,706.1089 171.6733,783.559 52.6133,803.799 82.4233,673.1989 112.2233,542.5989 
	210.7133,612.489 "/>
<path fill="#007EA1" d="M397.7133,745.1589l-36.22,6.16c-1.86,0.31-3.57,1.03-5.05,2.05c-2.53,1.75-4.38,4.4-5.09,7.5099
	l-9.22,40.38l-22.01-35.0699c-2.7-4.29-7.73-6.55-12.71-5.6801l-100.79,17.1l46.46-65.46l-13.45-79.13l83.38,59.14
	c4.11,2.94,9.62,3.09,13.91,0.39l35.05-22.04l-9.21,40.37c-0.71,3.1201-0.19,6.3101,1.33,8.98c0.89,1.56,2.12,2.95,3.66,4.04
	L397.7133,745.1589z"/>
<polygon fill="#002C7C" points="664.0733,877.3989 605.3834,890.7889 646.5333,864.9489 "/>
<path fill="#007EA1" d="M91.6433,909.7089l22.06,35.1l-40.4-9.22c-4.94-1.13-10.09,0.84-13.01,4.96l-57.35,80.84l43.78-191.79
	c1.2,0.15,2.44,0.22,3.7-0.01l100.7401-17.11l-59.13,83.31c-0.96,1.38-1.65,2.89-2.01,4.48
	C89.3033,903.439,89.8333,906.8489,91.6433,909.7089z"/>
<polygon points="184.8833,986.7689 171.5733,989.809 167.1133,982.7189 "/>
<path fill="#FFFFFF" d="M1559.8834,672.929l-81.26-356.03l-329.03-158.45L820.5733-0.001l-329.02,158.45l-329.03,158.45
	l-81.26,356.03l-81.26,356.0399l227.69,285.51l227.69,285.52h730.38l227.6901-285.52l227.6901-285.51L1559.8834,672.929z
	 M1594.4235,829.5989l43.7798,191.79l-57.3499-80.84c-2.92-4.12-8.0701-6.09-13.01-4.96l-40.4,9.22l22.0599-35.1
	c1.8101-2.86,2.3401-6.27,1.6201-9.44c-0.3601-1.59-1.05-3.1-2.01-4.48l-59.1301-83.31l100.74,17.11
	C1591.9833,829.8189,1593.2233,829.749,1594.4235,829.5989z M1470.5133,998.1289l-14.25-11.36l17.77-4.05l-4.46,7.09
	L1470.5133,998.1289z M1399.9434,973.9089l74.5399,59.4501l0.9302,8.25l5.5798,49.51l-104.0499,57.5099l-114.24-32.9301l-6.51-57.73
	l78.85-98.8699l-28.1399-123.29l30.9099-49.19l117.22,19.91l68.79,96.95l-26.51,42.19l-4.4199,7.03L1399.9434,973.9089z
	 M1078.4135,1377.089v95.34l-5.8701,5.88l-35.23,35.23l-109.8301-45.49l-45.49-109.8501l41.0801-41.0798h126.46l78.8501-98.8701
	l57.73-6.51l57.52,104.0601l-32.91,114.23l-49.51,5.5801l-8.26,0.9299L1078.4135,1377.089z M1117.7234,1440.5089l-8.3199,0.9301
	l-5.9202,5.92v-18.2101L1117.7234,1440.5089z M488.1933,1436.5389l-8.26-0.9299l-49.51-5.5801l-32.91-114.23l57.52-104.0601
	l57.74,6.51l78.84,98.8701h126.46l41.0801,41.0798l-45.49,109.8501l-109.8301,45.49l-35.23-35.23l-5.8701-5.88v-95.34
	L488.1933,1436.5389z M537.6633,1429.1489v18.2101l-5.92-5.92l-8.32-0.9301L537.6633,1429.1489z M167.1133,982.7189l17.77,4.05
	l-14.25,11.36l0.94-8.3199L167.1133,982.7189z M241.2033,973.9089l-92.95-21.21l-4.42-7.03l-26.5-42.19l68.78-96.95l117.22-19.91
	l30.91,49.19l-28.14,123.29l78.85,98.8699l-6.51,57.73l-114.24,32.9301l-104.05-57.5099l5.58-49.51l0.9301-8.25L241.2033,973.9089z
	 M145.6833,995.7189l-2.76,24.51l-45.45,36.2399l-10.52-5.8099l-53.18-29.4l35.16-49.56l6.95-9.81l56.68,12.94L145.6833,995.7189z
	 M263.0033,449.939l92.96,21.22l-41.37-85.9l2.74-7.84l16.46-47.03l118.69-6.67l88.64,79.24l-19.18,54.83l-113.94,54.87
	l-28.14,123.29l-49.19,30.91l-96.98-68.79l-19.91-117.2l42.19-26.51L263.0033,449.939z M201.7933,410.2589l-2.0099-11.85
	l-10.18-59.91l60.67-3.41l12.01-0.68l25.22,52.38l-8.15,23.28l-20.88,13.1201L201.7933,410.2589z M293.0233,431.0789l7.09-4.45
	l2.77-7.91l7.9,16.42L293.0233,431.0789z M655.8133,421.1489l52.3501-25.21l112.4099,39.33l112.4099-39.33l52.3501,25.21
	l-4.97,88.72l66.2701-59.2l52.3499,25.21l39.3301,112.41l100.8401,63.36l12.9299,56.65l-72.47,51.43l87.61,14.89l12.9301,56.65
	l-63.3601,100.84l13.3301,118.3399l-36.23,45.4301l-85.3901-24.59l42.98,77.78l-36.23,45.4299l-118.3499,13.3401l-84.2101,84.21
	h-58.1l-34.02-82.1001l-34.02,82.1001h-58.1l-84.2101-84.21l-118.3399-13.3401l-36.23-45.4299l42.97-77.78l-85.39,24.59
	l-36.23-45.4301l13.33-118.3399l-63.36-100.84l12.93-56.65l87.61-14.89l-72.47-51.43l12.93-56.65l100.84-63.36l39.33-112.41
	l52.3499-25.21l66.27,59.2L655.8133,421.1489z M820.5733,247.4089l41.37-85.9l7.84-2.74l47.03-16.46l79.21,88.64l-6.6799,118.71
	l-54.8301,19.19l-113.9399-54.87l-113.9399,54.87l-54.8301-19.19l-6.6799-118.71l79.21-88.64l47.03,16.46l7.84,2.74
	L820.5733,247.4089z M812.6733,173.2189l7.9,2.77l7.9-2.77l-7.9,16.42L812.6733,173.2189z M901.0433,380.559l-80.47,28.17
	l-80.47-28.17l80.47-38.76L901.0433,380.559z M1378.1434,449.939l7.0299,4.42l42.1901,26.51l-19.91,117.2l-96.98,68.79
	l-49.1901-30.91l-28.1399-123.29l-113.9301-54.87l-19.1901-54.83l88.65-79.24l118.6801,6.67l16.46,47.03l2.74,7.84l-41.36,85.9
	L1378.1434,449.939z M1330.3634,435.1389l7.8999-16.42l2.77,7.91l7.0901,4.45L1330.3634,435.1389z M1353.6434,386.7889l25.22-52.38
	l12.01,0.68l60.6699,3.41l-10.1799,59.91l-2.01,11.85l-56.67,12.9301l-20.89-13.1201L1353.6434,386.7889z M1289.7933,760.8789
	c-0.36-1.56-1-3-1.86-4.2599c-0.87-1.28-1.96-2.38-3.23-3.25c-1.48-1.02-3.1901-1.7401-5.0499-2.05l-36.2201-6.16l29.9601-21.26
	c1.5399-1.09,2.77-2.48,3.6599-4.04c1.52-2.67,2.04-5.86,1.3301-8.98l-9.2101-40.37l35.05,22.04c4.2899,2.7,9.7999,2.55,13.91-0.39
	l83.3799-59.14l-13.45,79.13l46.46,65.46l-100.79-17.1c-4.98-0.87-10.0099,1.39-12.7,5.6801l-22.02,35.0699L1289.7933,760.8789z
	 M1307.9135,952.9089l-55.6901,69.83l-9.5599-84.72l45.3799-72.19L1307.9135,952.9089z M1231.2633,617.0889l-72.2-45.35
	l-28.1499-80.48l80.48,38.75L1231.2633,617.0889z M1093.1534,1222.2189l-55.6901,69.8301h-89.32l60.2799-60.3L1093.1534,1222.2189z
	 M693.0032,1292.049h-89.3199l-55.69-69.8301l84.73,9.53L693.0032,1292.049z M398.4833,938.0189l-9.56,84.72l-55.69-69.83
	l19.8701-87.08L398.4833,938.0189z M409.8833,617.0889l19.87-87.08l80.48-38.75l-28.15,80.48L409.8833,617.0889z M239.6333,633.0189
	l83.38,59.14c4.11,2.94,9.62,3.09,13.91,0.39l35.05-22.04l-9.21,40.37c-0.71,3.1201-0.19,6.3101,1.33,8.98
	c0.89,1.56,2.12,2.95,3.66,4.04l29.96,21.26l-36.22,6.16c-1.86,0.31-3.57,1.03-5.05,2.05c-2.53,1.75-4.38,4.4-5.09,7.5099
	l-9.22,40.38l-22.01-35.0699c-2.7-4.29-7.73-6.55-12.71-5.6801l-100.79,17.1l46.46-65.46L239.6333,633.0189z M393.4433,1137.4589
	c4.88-1.3799,8.42-5.5898,8.99-10.6299l4.62-41.15l25.82,32.38c1.99,2.5,4.81,4.08,7.84,4.5601c1.79,0.2799,3.64,0.1799,5.44-0.3401
	l35.31-10.1699l-17.77,32.1599c-0.91,1.64-1.42,3.4299-1.54,5.23c-0.21,3.0601,0.7,6.16,2.7,8.66l25.8199,32.37l-41.15-4.65
	c-5.04-0.5699-9.93,1.9501-12.36,6.4l-49.47,89.45l-22.21-77.1299l-70.2599-38.8201L393.4433,1137.4589z M785.5233,1360.0389
	c1.9501-4.6699,0.8701-10.0701-2.72-13.66l-29.29-29.2599h41.42c3.1901,0,6.1901-1.2201,8.4501-3.3
	c1.33-1.21,2.4099-2.73,3.1299-4.46l14.0601-33.9401l14.0601,33.9401c0.72,1.73,1.7999,3.25,3.1299,4.46
	c2.26,2.08,5.26,3.3,8.4501,3.3h41.42l-29.29,29.2599c-3.5901,3.59-4.67,8.9901-2.72,13.66l39.1,94.45l-74.15-30.73l-74.15,30.73
	L785.5233,1360.0389z M1203.9833,1192.2789c-2.4299-4.45-7.3198-6.97-12.3599-6.4l-41.1401,4.65h-0.0099l25.8199-32.37
	c2-2.5,2.91-5.6,2.7-8.66c-0.1199-1.8-0.6299-3.59-1.5399-5.23l-17.77-32.1599l35.3099,10.1699c1.8,0.52,3.6602,0.62,5.4401,0.3401
	c3.03-0.4801,5.85-2.0601,7.84-4.5601l25.8201-32.38l4.62,41.15c0.5699,5.04,4.11,9.25,8.99,10.6299l98.22,28.3201l-70.2599,38.8201
	l-22.2101,77.1299L1203.9833,1192.2789z M1508.5834,974.8289l56.6799-12.94l6.9501,9.81l35.16,49.56l-53.1801,29.4l-10.52,5.8099
	l-45.45-36.2399l-2.76-24.51L1508.5834,974.8289z M1558.7234,673.1989l29.8099,130.6l-119.0599-20.24l-54.9601-77.45l15.92-93.62
	l98.49-69.89L1558.7234,673.1989z M1479.2533,324.999l43.78,191.8c-1.1499,0.38-2.3,0.86-3.34,1.61l-83.33,59.12l17.1199-100.71
	c0.1201-0.72,0.1802-1.44,0.1802-2.15c0-0.93-0.1101-1.85-0.3101-2.75c-0.72-3.18-2.6801-6.02-5.55-7.81l-35.11-22.05l40.4-9.22
	c4.9399-1.13,8.72-5.14,9.5701-10.12L1479.2533,324.999z M1293.6134,229.119l177.25,85.36l-98.96-5.56
	c-5.04-0.29-9.79,2.5-11.99,7.07l-17.9801,37.33l-13.6901-39.1299c-1.0999-3.2-3.4399-5.7401-6.3699-7.15
	c-1.47-0.7-3.0801-1.11-4.76-1.21l-101.99-5.73l76.1799-68.08C1292.2633,231.1689,1292.9933,230.1589,1293.6134,229.119z
	 M1028.3934,101.3989l241.3799,116.24l-90.0499,80.47l-94.8199-5.32l-63.2801-70.82L1028.3934,101.3989z M1013.9034,359.439
	l5.75-102.0601l53.48,59.86l80.1399,4.49l-76.21,68.13c-3.79,3.36-5.1599,8.69-3.48,13.48l13.6899,39.08l-37.3099-17.97
	c-2.88-1.39-6.11-1.59-9.0499-0.7c-1.7201,0.52-3.3501,1.41-4.75,2.66l-27.4002,24.48l2.0601-36.68c0.11-1.88-0.21-3.71-0.88-5.38
	c-0.11-0.27-0.22-0.53-0.36-0.79c-0.0701-0.16-0.15-0.32-0.24-0.48c-0.0801-0.16-0.17-0.32-0.26-0.47
	c-0.11-0.18-0.22-0.36-0.3401-0.54c-0.1199-0.18-0.24-0.36-0.3699-0.53c-0.1301-0.17-0.26-0.34-0.4-0.51
	c-0.0599-0.09-0.14-0.17-0.2101-0.25c-0.0699-0.08-0.1399-0.16-0.21-0.24c-0.1499-0.16-0.3-0.32-0.45-0.47
	c-0.14-0.14-0.28-0.27-0.4301-0.4c-0.5699-0.51-1.2-0.98-1.87-1.39c-0.34-0.2-0.6899-0.39-1.05-0.56l-37.3099-17.97l39.09-13.66
	C1010.3133,368.8889,1013.6334,364.499,1013.9034,359.439z M1004.5533,89.9189c-0.4199,1.13-0.76,2.33-0.83,3.6l-5.7301,102.02
	l-68.0599-76.17c-1.13-1.25-2.4501-2.26-3.92-2.96c-2.9299-1.41-6.3699-1.66-9.5599-0.53l-39.13,13.7l17.97-37.34
	c2.2-4.56,1.4301-10.02-1.9399-13.78l-66.05-73.9L1004.5533,89.9189z M861.0633,79.9489l8.02,8.96l-25.23,52.38l-23.28,8.14
	l-23.28-8.14l-25.23-52.38l8.02-8.96l40.49-45.31L861.0633,79.9489z M813.8433,4.559l-66.05,73.9
	c-3.37,3.76-4.1399,9.22-1.9399,13.78l17.97,37.34l-39.13-13.7c-3.1901-1.1299-6.63-0.8799-9.5599,0.53
	c-1.47,0.7-2.79,1.71-3.91,2.96l-68.0699,76.17l-5.7301-102.02c-0.0699-1.27-0.41-2.47-0.83-3.6L813.8433,4.559z M627.2432,359.439
	c0.27,5.06,3.5901,9.45,8.3701,11.1299l39.09,13.66l-37.3099,17.97c-0.3601,0.17-0.7101,0.36-1.05,0.56
	c-0.67,0.41-1.3,0.88-1.87,1.39c-0.15,0.13-0.3,0.27-0.4301,0.4c-0.1499,0.15-0.3,0.31-0.45,0.47c-0.0701,0.08-0.14,0.16-0.21,0.24
	c-0.0701,0.08-0.1501,0.16-0.2101,0.25c-0.14,0.17-0.2699,0.34-0.4,0.51c-0.1299,0.17-0.25,0.35-0.3699,0.53
	c-0.1201,0.18-0.2301,0.36-0.3401,0.54c-0.09,0.15-0.1799,0.31-0.26,0.47c-0.09,0.16-0.1699,0.3199-0.24,0.48
	c-0.14,0.26-0.25,0.52-0.36,0.79c-0.67,1.67-0.99,3.5-0.88,5.38l2.0601,36.68l-27.4001-24.48c-1.3999-1.25-3.0299-2.14-4.75-2.66
	c-2.9399-0.89-6.1699-0.69-9.0499,0.7l-37.31,17.97l13.69-39.08c1.6799-4.79,0.3101-10.12-3.48-13.48l-76.21-68.13l80.14-4.49
	l53.48-59.86L627.2432,359.439z M612.7532,101.3989l6.77,120.57l-63.28,70.82l-94.82,5.32l-90.05-80.47L612.7532,101.3989z
	 M347.5333,229.119c0.62,1.04,1.35,2.05,2.31,2.9l76.18,68.08l-101.99,5.73c-1.68,0.1-3.29,0.51-4.76,1.21
	c-2.93,1.41-5.27,3.95-6.37,7.15l-13.69,39.1299l-17.98-37.33c-2.2-4.57-6.95-7.36-11.99-7.07l-98.96,5.56L347.5333,229.119z
	 M161.8933,324.999l16.59,97.72c0.85,4.98,4.63,8.99,9.57,10.12l40.4,9.22l-35.1,22.05c-2.88,1.79-4.84,4.63-5.5601,7.81
	c-0.2,0.9-0.31,1.82-0.31,2.75c0,0.71,0.06,1.43,0.1801,2.15l17.12,100.71l-83.33-59.12c-1.04-0.75-2.19-1.23-3.34-1.61
	L161.8933,324.999z M82.4233,673.1989l29.8-130.6l98.49,69.89l15.92,93.62l-54.96,77.45l-119.06,20.24L82.4233,673.1989z
	 M46.7233,829.5989c1.2,0.15,2.44,0.22,3.7-0.01l100.7401-17.11l-59.13,83.31c-0.96,1.38-1.65,2.89-2.01,4.48
	c-0.72,3.17-0.19,6.58,1.62,9.44l22.06,35.1l-40.4-9.22c-4.94-1.13-10.09,0.84-13.01,4.96l-57.35,80.84L46.7233,829.5989z
	 M128.6033,1188.319l-122.66-153.8101l86.74,47.95c4.42,2.4501,9.91,1.99,13.88-1.1699l32.39-25.8301l-4.64,41.1901
	c-0.4,3.37,0.61,6.67,2.64,9.2101c1.01,1.2699,2.28,2.3398,3.75,3.1599l89.42,49.41l-98.19,28.2899
	C130.7033,1187.069,129.6133,1187.6689,128.6033,1188.319z M228.6233,1313.7389l-83.53-104.73l116.05-33.4199l83.13,45.9299
	l26.28,91.26l-58.41,105.7L228.6233,1313.7389z M328.6433,1439.1689c0.86-0.85,1.69-1.78,2.3-2.9l49.43-89.4299l28.28,98.1699
	c0.47,1.6101,1.22,3.0901,2.24,4.3601c2.03,2.5499,5.02,4.2599,8.39,4.6199l41.19,4.65l-32.39,25.83
	c-3.97,3.16-5.63,8.41-4.23,13.27l27.45,95.24L328.6433,1439.1689z M453.5833,1510.3989l-3.33-11.5499l45.45-36.25l24.52,2.77
	l17.44,17.4399v58.13l-11.11,4.6l-56.14,23.25L453.5833,1510.3989z M660.8233,1595.609c-0.03,0.0898-0.0601,0.1799-0.0901,0.2699
	c-0.0299,0.0699-0.0499,0.15-0.0698,0.2201c-0.01,0.0299-0.02,0.0599-0.03,0.09c-0.04,0.12-0.0701,0.24-0.1001,0.36
	c-0.05,0.1899-0.09,0.38-0.1299,0.5601c-0.04,0.1899-0.0701,0.3799-0.1001,0.5699s-0.0601,0.38-0.08,0.5699
	c-0.03,0.1801-0.05,0.3701-0.0699,0.5601H463.4233l91.57-37.92c4.67-1.9301,7.74-6.51,7.74-11.58v-41.4301l29.31,29.3101
	c2.38,2.41,5.5901,3.6801,8.8501,3.6801c1.6199,0,3.25-0.3301,4.8099-0.9701l94.38-39.1l-39.1001,94.4099
	C660.9333,1595.339,660.8734,1595.4789,660.8233,1595.609z M686.6133,1598.809l46.22-111.5701l87.74-36.35l87.74,36.35
	l46.22,111.5701H686.6133z M980.9932,1598.809c-0.1199-1.2-0.3298-2.42-0.8199-3.6001l-39.11-94.4099l94.3801,39.1
	c1.5599,0.64,3.1901,0.9701,4.8099,0.9701c3.26,0,6.4701-1.27,8.8501-3.6801l29.3101-29.3101v41.4301
	c0,5.0699,3.0698,9.6499,7.74,11.58l91.5699,37.92H980.9932z M1170.7333,1568.7889l-56.1399-23.25l-11.1101-4.6v-58.13
	l17.4401-17.4399l24.52-2.77l45.4501,36.25l-3.3301,11.5499L1170.7333,1568.7889z M1189.8434,1592.9789l27.45-95.24
	c1.4-4.86-0.26-10.11-4.23-13.27l-32.39-25.83l41.1901-4.65c3.3699-0.36,6.36-2.0699,8.3899-4.6199c1.02-1.27,1.77-2.75,2.24-4.3601
	l28.28-98.1699l49.4301,89.4299c0.61,1.12,1.4401,2.05,2.2999,2.9L1189.8434,1592.9789z M1412.5233,1313.7389l-83.52,104.74
	l-58.4099-105.7l26.28-91.26l83.1299-45.9299l116.05,33.4199L1412.5233,1313.7389z M1512.5533,1188.319h-0.01
	c-1.01-0.65-2.1-1.25-3.33-1.6001l-98.1901-28.2899l89.42-49.41c1.4701-0.8201,2.74-1.89,3.75-3.1599
	c2.03-2.54,3.0399-5.8401,2.64-9.2101l-4.64-41.1901l32.39,25.8301c3.97,3.1599,9.46,3.62,13.88,1.1699l86.7399-47.95
	L1512.5533,1188.319z"/>
<polygon fill="#002C7C" points="384.9533,1057.9689 378.4433,1115.6989 264.2033,1148.6289 160.1533,1091.119 165.7333,1041.609 
	166.6633,1033.359 241.2033,973.9089 148.2533,952.6989 143.8333,945.6689 117.3333,903.4789 186.1133,806.5289 303.3333,786.619 
	334.2433,835.809 306.1033,959.0989 "/>
<polygon fill="#002C7C" points="759.1534,1358.1989 713.6634,1468.049 603.8333,1513.5389 568.6033,1478.309 562.7333,1472.429 
	562.7333,1377.089 488.1933,1436.5389 479.9333,1435.609 430.4233,1430.0289 397.5133,1315.799 455.0333,1211.7389 
	512.7733,1218.2489 591.6133,1317.119 718.0733,1317.119 "/>
<polygon fill="#002C7C" points="996.0233,230.9489 989.3433,349.6589 934.5132,368.8489 820.5733,313.9789 706.6334,368.8489 
	651.8033,349.6589 645.1234,230.9489 724.3333,142.309 771.3633,158.7689 779.2033,161.5089 820.5733,247.4089 861.9433,161.5089 
	869.7833,158.7689 916.8133,142.309 "/>
<polygon fill="#002C7C" points="541.1233,402.9589 521.9433,457.7889 408.0033,512.6589 379.8633,635.9489 330.6733,666.8589 
	233.6933,598.0689 213.7833,480.869 255.9733,454.3589 263.0033,449.939 355.9633,471.1589 314.5933,385.2589 317.3333,377.4189 
	333.7933,330.3889 452.4833,323.7189 "/>
<polygon fill="#002C7C" points="869.0833,88.9089 843.8533,141.2889 820.5733,149.429 797.2933,141.2889 772.0633,88.9089 
	780.0833,79.9489 820.5733,34.6389 861.0633,79.9489 "/>
<polygon fill="#002C7C" points="287.5033,386.7889 279.3533,410.0689 258.4733,423.189 201.7933,410.2589 199.7833,398.4089 
	189.6033,338.499 250.2733,335.0889 262.2833,334.4089 "/>
<polygon fill="#002C7C" points="145.6833,995.7189 142.9233,1020.2289 97.4733,1056.4689 86.9533,1050.6589 33.7733,1021.2589 
	68.9333,971.6989 75.8833,961.8889 132.5633,974.8289 "/>
<polygon fill="#002C7C" points="537.6633,1482.809 537.6633,1540.939 526.5533,1545.5389 470.4133,1568.7889 453.5833,1510.3989 
	450.2533,1498.849 495.7033,1462.609 520.2233,1465.369 "/>
<polygon fill="#002C7C" points="1190.8934,1498.849 1187.5634,1510.3989 1170.7333,1568.7889 1114.5934,1545.5389 
	1103.4833,1540.939 1103.4833,1482.809 1120.9233,1465.369 1145.4434,1462.609 "/>
<polygon points="693.0032,1292.049 603.6833,1292.049 547.9933,1222.2189 632.7233,1231.7489 "/>
<polygon points="1093.1534,1222.2189 1037.4634,1292.049 948.1434,1292.049 1008.4233,1231.7489 "/>
<polygon points="1307.9135,952.9089 1252.2234,1022.739 1242.6635,938.0189 1288.0433,865.8289 "/>
<polygon points="1231.2633,617.0889 1159.0634,571.739 1130.9135,491.2589 1211.3934,530.0089 "/>
<polygon points="901.0433,380.559 820.5733,408.7289 740.1033,380.559 820.5733,341.799 "/>
<polygon points="398.4833,938.0189 388.9233,1022.739 333.2333,952.9089 353.1033,865.8289 "/>
<polygon points="510.2333,491.2589 482.0833,571.739 409.8833,617.0889 429.7533,530.0089 "/>
<polygon fill="#BF5700" points="890.6033,825.689 885.3734,856.4689 876.7332,886.4589 849.4134,901.559 820.5733,913.5089 
	791.7332,901.559 764.4134,886.4589 755.7733,856.4689 750.5433,825.689 768.6033,800.239 789.4034,776.9589 820.5733,775.2089 
	851.7432,776.9589 872.5433,800.239 "/>
</svg>
